# xmcd CD database file
#
# Track frame offsets:
#	150
#	29650
#	80752
#	130152
#	204335
#	293712
#
# Disc length: 4015 seconds
#
# Revision: 0
# Processed by: cddbd v1.5.1PL0 Copyright (c) Steve Scherf et al.
# Submitted via: CDex 1.51
#
DISCID=530fad06
DTITLE=Gil Evans - Complete Gil Evans and the Monday Night Orchestra at Sweet Basil (Disk 5)
DYEAR=1986
DGENRE=Jazz
TTITLE0=Stone Free
TTITLE1=Up From The Skies
TTITLE2=Cosmos
TTITLE3=Groove From The Louvre
TTITLE4=Waltz
TTITLE5=Eleven
EXTD=YEAR: 1986
EXTT0=
EXTT1=
EXTT2=
EXTT3=
EXTT4=
EXTT5=
PLAYORDER=
